More info www. MoviesP2P. com


Sleeping Beauty 2011 LIMITED 720p BRRIP XVID AC3  - Xtreme Encode

General

Complete name                            : Sleeping Beauty 2011 LIMITED 720p BRRIP XVID AC3  - Xtreme Encode.avi
Format                                   : AVI
Format/Info                              : Audio Video Interleave
Format profile                           : OpenDML
File size                                : 2.72 GiB
Duration                                 : 1h 41mn
Overall bit rate                         : 3 833 Kbps

Video

ID                                       : 0
Format                                   : MPEG-4 Visual
Format profile                           : Advanced Simple@L5
Format settings, BVOP                    : 1
Format settings, QPel                    : No
Format settings, GMC                     : No warppoints
Format settings, Matrix                  : Default (H.263)
Codec ID                                 : XVID
Codec ID/Hint                            : XviD
Duration                                 : 1h 41mn
Bit rate                                 : 3 182 Kbps
Width                                    : 1 280 pixels
Height                                   : 688 pixels
Display aspect ratio                     : 1.860
Frame rate                               : 23.976 fps
Color space                              : YUV
Chroma subsampling                       : 4:2:0
Bit depth                                : 8 bits
Scan type                                : Progressive
Compression mode                         : Lossy
Bits/(Pixel*Frame)                       : 0.151
Stream size                              : 2.26 GiB (83%)

Audio

ID                                       : 1
Format                                   : AC-3
Format/Info                              : Audio Coding 3
Mode extension                           : CM (complete main)
Codec ID                                 : 2000
Duration                                 : 1h 41mn
Bit rate mode                            : Constant
Bit rate                                 : 640 Kbps
Channel(s)                               : 6 channels
Channel positions                        : Front: L C R, Side: L R, LFE
Sampling rate                            : 48.0 KHz
Bit depth                                : 16 bits
Compression mode                         : Lossy
Stream size                              : 466 MiB (17%)
Alignment                                : Split accross interleaves
Interleave, duration                     : 42 ms (1.00 video frame)
Interleave, preload duration             : 500 ms

SOURCE

Video : 720p BluRay X264-7SinS
Audio : 720p BluRay X264-7SinS

JUST A LITTLE MESS WITH THIS ADDES BIT OF CONTRAS 
RESIZED BIT TWEAKED BIT SHARPEN in 
SAT HUE and few othere things 

PLOT

A haunting portrait of Lucy, a young university student 
drawn into a mysterious hidden world of unspoken desires.

Genres: Drama 
Director: Julia Leigh
Writer: Julia Leigh (screenplay)
Stars: Emily Browning, Rachael Blake and Ewen Leslie 
IMDB: http://www.imdb.com/title/tt1588398/

IF U GOT ANYTHING TO OFFER JUST DROP ONE AT: Xtreme-Encode@hushmail.me  
